<svg xmlns="http://www.w3.org/2000/svg" viewBox="0 0 32 32" role="img" aria-label="://">
  <!-- Unbounded :// — wordmark without n/m; transparent; identical slash paths -->
  <style>
    .fill { fill: #111111; }
    .halo { fill: none; stroke: #111111; stroke-width: 0.590; stroke-linejoin: round; stroke-linecap: round; }
    @media (prefers-color-scheme: dark) {
      .fill { fill: #f0f0f0; }
      .halo { stroke: #ffffff; }
    }
  </style>
  <g transform="translate(3.783 23.021) scale(1.10138)">
    <g class="halo">
      <path d="M2.5 0.14L2.5 0.14Q1.92 0.14 1.51 -0.27Q1.1 -0.68 1.1 -1.26L1.1 -1.26Q1.1 -1.85 1.51 -2.25Q1.92 -2.65 2.5 -2.65L2.5 -2.65Q3.09 -2.65 3.49 -2.25Q3.89 -1.85 3.89 -1.26L3.89 -1.26Q3.89 -0.68 3.49 -0.27Q3.09 0.14 2.5 0.14ZM2.5 -6.12L2.5 -6.12Q1.92 -6.12 1.51 -6.53Q1.1 -6.94 1.1 -7.51L1.1 -7.51Q1.1 -8.11 1.51 -8.51Q1.92 -8.91 2.5 -8.91L2.5 -8.91Q3.09 -8.91 3.49 -8.51Q3.89 -8.11 3.89 -7.51L3.89 -7.51Q3.89 -6.94 3.49 -6.53Q3.09 -6.12 2.5 -6.12Z"/>
      <path d="M0.27 0.46L5.03 -13.21L6.89 -13.21L2.13 0.46L0.27 0.46Z" transform="translate(6.018 0)"/>
      <path d="M0.27 0.46L5.03 -13.21L6.89 -13.21L2.13 0.46L0.27 0.46Z" transform="translate(14.195 0)"/>
    </g>
    <g class="fill">
      <path d="M2.5 0.14L2.5 0.14Q1.92 0.14 1.51 -0.27Q1.1 -0.68 1.1 -1.26L1.1 -1.26Q1.1 -1.85 1.51 -2.25Q1.92 -2.65 2.5 -2.65L2.5 -2.65Q3.09 -2.65 3.49 -2.25Q3.89 -1.85 3.89 -1.26L3.89 -1.26Q3.89 -0.68 3.49 -0.27Q3.09 0.14 2.5 0.14ZM2.5 -6.12L2.5 -6.12Q1.92 -6.12 1.51 -6.53Q1.1 -6.94 1.1 -7.51L1.1 -7.51Q1.1 -8.11 1.51 -8.51Q1.92 -8.91 2.5 -8.91L2.5 -8.91Q3.09 -8.91 3.49 -8.51Q3.89 -8.11 3.89 -7.51L3.89 -7.51Q3.89 -6.94 3.49 -6.53Q3.09 -6.12 2.5 -6.12Z"/>
      <path d="M0.27 0.46L5.03 -13.21L6.89 -13.21L2.13 0.46L0.27 0.46Z" transform="translate(6.018 0)"/>
      <path d="M0.27 0.46L5.03 -13.21L6.89 -13.21L2.13 0.46L0.27 0.46Z" transform="translate(14.195 0)"/>
    </g>
  </g>
</svg>
