<svg
	xmlns="http://www.w3.org/2000/svg"
	xmlns:xlink="http://www.w3.org/1999/xlink" version="1.1" id="Layer_1" x="0px" y="0px" style="enable-background:new 0 0 841.89 595.28;" xml:space="preserve" viewBox="43.84 158.65 749.98 207.79">
	<style type="text/css">
        .st0{
            fill:none;
            stroke:#050506;
            stroke-width: 7;
            stroke-linecap:round;
            stroke-linejoin:round;
            stroke-miterlimit:10;
        }
        </style>
	<circle class="st0" cx="512.21" cy="254.51" r="2.02"></circle>
	<path class="st0" d="M248.74,261.17c0,0-41.79-16.09-79.57,25.79S185,395.98,271.81,346.45s143.23-134.3,142.47-128.68  c-0.77,5.62-17.62,81.45-4.34,82.34c13.28,0.89,44.26-61.57,43.23-81.66c-1.02-20.09-2.72,37.62,7.66,60.43  c10.38,22.81,20.85,20.72,44.6-8.77c0,0-13.7,23.4-10.81,25.62s41.45-32.38,64.81-58.55s12.89-37.91-9.32-4.98  s-33.53,64.21-24,59.11s31.32-25.45,30.21-23.4c-1.11,2.04-11.57,21.53-7.49,22.98c4.09,1.45,24.09-19.49,12.85-22.13  c0,0,26.89-8.43,25.7-3.49c-1.19,4.94-15.23,27.23-10.21,25.11c5.02-2.13,34.98-27.23,34.98-25.62c0,1.62-9.19,23.62,1.66,27.57  c10.85,3.96,91.91-11.36,130.72-3.45c38.81,7.91,58.85,25.02,39.06,47.11"></path>
	<path class="st0" d="M320.32,203.72c0,0-15.7,92.3,1.79,89.49c0,0,18.55-58.26,43.4-94.17c24.85-35.91,64.17-53.62,65.19-19.91"></path>
	<path class="st0" d="M320.32,203.72c0,0-59.23,107.49-174.64,148.09s-127.4-40.85-50.81-81.7s149.19-26.3,153.87-8.94"></path>
</svg>